# xmcd
#
# Track frame offsets: 
#        150
#        21122
#        31847
#        45925
#
# Disc length: 1036 seconds
#
# Revision: 1
# Processed by: cddbd v1.5.2PL0 Copyright (c) Steve Scherf et al.
# Submitted via: ExactAudioCopy v1.3
#
DISCID=20040a04
DTITLE=Sunhouse - Animal
DYEAR=1998
DGENRE=Indie
TTITLE0=Animal - Radio Edit
TTITLE1=Loud Crowd - Acoustic Demo
TTITLE2=Spinning Round the Sun - Acoustic Demo
TTITLE3=Animal
EXTD=
EXTT0=
EXTT1=
EXTT2=
EXTT3=
PLAYORDER=
